<?xml version="1.0" standalone="no"?>
<!DOCTYPE svg PUBLIC "-//W3C//DTD SVG 20010904//EN"
 "http://www.w3.org/TR/2001/REC-SVG-20010904/DTD/svg10.dtd">
<svg version="1.0" xmlns="http://www.w3.org/2000/svg"
 width="512.000000pt" height="512.000000pt" viewBox="0 0 512.000000 512.000000"
 preserveAspectRatio="xMidYMid meet">

<g transform="translate(0.000000,512.000000) scale(0.100000,-0.100000)"
fill="#fff" stroke="none">
<path d="M1742 4165 c-214 -48 -393 -221 -458 -440 -22 -74 -24 -218 -5 -295
8 -30 27 -85 43 -122 39 -94 44 -141 21 -209 -28 -83 -115 -216 -220 -334
-149 -169 -211 -273 -259 -432 -37 -121 -39 -308 -5 -428 109 -389 490 -715
1016 -868 779 -228 1690 -37 2143 448 183 196 264 387 265 625 1 145 -15 221
-73 346 -52 114 -104 186 -237 332 -130 143 -206 259 -224 339 -14 59 -10 77
51 247 78 217 22 454 -145 622 -190 191 -457 236 -703 118 -91 -44 -209 -155
-261 -247 -18 -31 -40 -61 -49 -66 -26 -13 -177 -8 -195 7 -8 7 -32 42 -53 78
-69 117 -195 218 -333 264 -83 28 -233 35 -319 15z m251 -100 c132 -34 258
-128 322 -240 64 -112 88 -125 235 -125 146 0 179 17 230 120 53 104 195 211
327 245 247 65 527 -93 602 -339 42 -140 36 -238 -26 -386 -31 -73 -36 -96
-36 -165 -1 -66 4 -90 25 -137 45 -97 110 -188 228 -318 174 -191 239 -304
274 -473 54 -258 -44 -521 -273 -740 -242 -229 -577 -378 -1001 -444 -161 -25
-519 -25 -680 0 -424 66 -759 215 -1001 444 -229 219 -327 482 -273 740 33
160 98 277 249 448 144 163 237 318 254 421 12 76 1 142 -42 251 -60 152 -58
281 8 421 101 215 353 336 578 277z"/>
<path d="M1845 3640 c-52 -19 -59 -79 -14 -113 43 -31 99 -2 99 52 0 43 -46
75 -85 61z"/>
<path d="M3219 3635 c-52 -28 -42 -106 15 -121 77 -19 112 92 39 125 -28 13
-22 13 -54 -4z"/>
<path d="M2368 2189 c-25 -14 -23 -64 3 -83 23 -16 47 -12 67 12 17 22 15 39
-8 62 -22 22 -37 24 -62 9z"/>
<path d="M2672 2184 c-30 -21 -29 -59 3 -80 23 -15 27 -15 50 0 32 21 33 59 3
80 -12 9 -25 16 -28 16 -3 0 -16 -7 -28 -16z"/>
<path d="M1315 2000 c-18 -20 -18 -24 -4 -48 17 -31 44 -37 334 -77 375 -50
509 -59 900 -60 231 0 423 5 510 13 292 28 680 83 717 103 22 12 24 62 3 79
-17 14 -14 14 -300 -28 -649 -95 -1213 -94 -1885 4 -270 40 -252 39 -275 14z"/>
</g>
</svg>
